<mxfile host="drawio-plugin" modified="2022-03-30T11:49:19.529Z" agent="5.0 (Windows NT 6.2; Win64; x64) AppleWebKit/537.36 (KHTML, like Gecko) Chrome/89.0.4389.114 Safari/537.36" etag="uuGLZT_75rZ2aqbBhNyL" version="15.5.4" type="embed"><diagram id="23iRSUPoRavnBvh4doch" name="Page-1"><mxGraphModel dx="899" dy="782" grid="0" gridSize="10" guides="1" tooltips="1" connect="1" arrows="1" fold="1" page="1" pageScale="1" pageWidth="827" pageHeight="1169" math="0" shadow="0"><root><mxCell id="0"/><mxCell id="1" parent="0"/><mxCell id="2" value="BookingSustem" style="swimlane;fontStyle=1;align=center;verticalAlign=top;childLayout=stackLayout;horizontal=1;startSize=26;horizontalStack=0;resizeParent=1;resizeParentMax=0;resizeLast=0;collapsible=1;marginBottom=0;fillColor=#09555B;strokeColor=#BAC8D3;fontColor=#EEEEEE;" parent="1" vertex="1"><mxGeometry x="350" y="63" width="392" height="245" as="geometry"/></mxCell><mxCell id="3" value="- users: List&lt;User&gt;" style="text;strokeColor=none;fillColor=none;align=left;verticalAlign=top;spacingLeft=4;spacingRight=4;overflow=hidden;rotatable=0;points=[[0,0.5],[1,0.5]];portConstraint=eastwest;fontColor=#EEEEEE;" parent="2" vertex="1"><mxGeometry y="26" width="392" height="26" as="geometry"/></mxCell><mxCell id="6" value="- conserts: List&lt;Consert&gt;" style="text;strokeColor=none;fillColor=none;align=left;verticalAlign=top;spacingLeft=4;spacingRight=4;overflow=hidden;rotatable=0;points=[[0,0.5],[1,0.5]];portConstraint=eastwest;fontColor=#EEEEEE;" parent="2" vertex="1"><mxGeometry y="52" width="392" height="26" as="geometry"/></mxCell><mxCell id="77" value="- bookings: Map&lt;User, List&lt;Booking&gt;&gt;" style="text;strokeColor=none;fillColor=none;align=left;verticalAlign=top;spacingLeft=4;spacingRight=4;overflow=hidden;rotatable=0;points=[[0,0.5],[1,0.5]];portConstraint=eastwest;rounded=0;sketch=0;fontColor=#EEEEEE;" parent="2" vertex="1"><mxGeometry y="78" width="392" height="26" as="geometry"/></mxCell><mxCell id="4" value="" style="line;strokeWidth=1;fillColor=none;align=left;verticalAlign=middle;spacingTop=-1;spacingLeft=3;spacingRight=3;rotatable=0;labelPosition=right;points=[];portConstraint=eastwest;strokeColor=#BAC8D3;fontColor=#EEEEEE;" parent="2" vertex="1"><mxGeometry y="104" width="392" height="8" as="geometry"/></mxCell><mxCell id="5" value="+ findConcertSpaces(spaces, location, date, maxPrice): List&lt;Concert&gt;" style="text;strokeColor=none;fillColor=none;align=left;verticalAlign=top;spacingLeft=4;spacingRight=4;overflow=hidden;rotatable=0;points=[[0,0.5],[1,0.5]];portConstraint=eastwest;fontColor=#EEEEEE;" parent="2" vertex="1"><mxGeometry y="112" width="392" height="29" as="geometry"/></mxCell><mxCell id="8" value="+ bookTicket(user, concert, spaces):void" style="text;strokeColor=none;fillColor=none;align=left;verticalAlign=top;spacingLeft=4;spacingRight=4;overflow=hidden;rotatable=0;points=[[0,0.5],[1,0.5]];portConstraint=eastwest;fontColor=#EEEEEE;" parent="2" vertex="1"><mxGeometry y="141" width="392" height="26" as="geometry"/></mxCell><mxCell id="9" value="+ payForTicket(booking):void" style="text;strokeColor=none;fillColor=none;align=left;verticalAlign=top;spacingLeft=4;spacingRight=4;overflow=hidden;rotatable=0;points=[[0,0.5],[1,0.5]];portConstraint=eastwest;fontColor=#EEEEEE;" parent="2" vertex="1"><mxGeometry y="167" width="392" height="26" as="geometry"/></mxCell><mxCell id="81" value="+ cancelBooking(booking):void" style="text;strokeColor=none;fillColor=none;align=left;verticalAlign=top;spacingLeft=4;spacingRight=4;overflow=hidden;rotatable=0;points=[[0,0.5],[1,0.5]];portConstraint=eastwest;fontColor=#EEEEEE;" vertex="1" parent="2"><mxGeometry y="193" width="392" height="26" as="geometry"/></mxCell><mxCell id="82" value="+ getUsersBookings(user):List&lt;Booking&gt;" style="text;strokeColor=none;fillColor=none;align=left;verticalAlign=top;spacingLeft=4;spacingRight=4;overflow=hidden;rotatable=0;points=[[0,0.5],[1,0.5]];portConstraint=eastwest;fontColor=#EEEEEE;" vertex="1" parent="2"><mxGeometry y="219" width="392" height="26" as="geometry"/></mxCell><mxCell id="10" value="User" style="swimlane;fontStyle=1;align=center;verticalAlign=top;childLayout=stackLayout;horizontal=1;startSize=26;horizontalStack=0;resizeParent=1;resizeParentMax=0;resizeLast=0;collapsible=1;marginBottom=0;rounded=0;sketch=0;fontColor=#EEEEEE;strokeColor=#BAC8D3;fillColor=#09555B;" parent="1" vertex="1"><mxGeometry x="57" y="63" width="195" height="190" as="geometry"/></mxCell><mxCell id="7" value="- name:String" style="text;strokeColor=none;fillColor=none;align=left;verticalAlign=top;spacingLeft=4;spacingRight=4;overflow=hidden;rotatable=0;points=[[0,0.5],[1,0.5]];portConstraint=eastwest;fontColor=#EEEEEE;" parent="10" vertex="1"><mxGeometry y="26" width="195" height="26" as="geometry"/></mxCell><mxCell id="14" value="- tickets: List&lt;Ticket&gt;" style="text;strokeColor=none;fillColor=none;align=left;verticalAlign=top;spacingLeft=4;spacingRight=4;overflow=hidden;rotatable=0;points=[[0,0.5],[1,0.5]];portConstraint=eastwest;rounded=0;sketch=0;fontColor=#EEEEEE;" parent="10" vertex="1"><mxGeometry y="52" width="195" height="26" as="geometry"/></mxCell><mxCell id="12" value="" style="line;strokeWidth=1;fillColor=none;align=left;verticalAlign=middle;spacingTop=-1;spacingLeft=3;spacingRight=3;rotatable=0;labelPosition=right;points=[];portConstraint=eastwest;rounded=0;sketch=0;fontColor=#EEEEEE;strokeColor=#BAC8D3;" parent="10" vertex="1"><mxGeometry y="78" width="195" height="8" as="geometry"/></mxCell><mxCell id="79" value="+ receiveTicket(Ticket):void" style="text;strokeColor=none;fillColor=none;align=left;verticalAlign=top;spacingLeft=4;spacingRight=4;overflow=hidden;rotatable=0;points=[[0,0.5],[1,0.5]];portConstraint=eastwest;rounded=0;sketch=0;fontColor=#EEEEEE;" parent="10" vertex="1"><mxGeometry y="86" width="195" height="26" as="geometry"/></mxCell><mxCell id="13" value="+ getBookings(): List&lt;Booking&gt;" style="text;strokeColor=none;fillColor=none;align=left;verticalAlign=top;spacingLeft=4;spacingRight=4;overflow=hidden;rotatable=0;points=[[0,0.5],[1,0.5]];portConstraint=eastwest;rounded=0;sketch=0;fontColor=#EEEEEE;" parent="10" vertex="1"><mxGeometry y="112" width="195" height="26" as="geometry"/></mxCell><mxCell id="72" value="+ getName(): String" style="text;strokeColor=none;fillColor=none;align=left;verticalAlign=top;spacingLeft=4;spacingRight=4;overflow=hidden;rotatable=0;points=[[0,0.5],[1,0.5]];portConstraint=eastwest;rounded=0;sketch=0;fontColor=#EEEEEE;" parent="10" vertex="1"><mxGeometry y="138" width="195" height="26" as="geometry"/></mxCell><mxCell id="71" value="+ getTickets(): List&lt;Ticket&gt;" style="text;strokeColor=none;fillColor=none;align=left;verticalAlign=top;spacingLeft=4;spacingRight=4;overflow=hidden;rotatable=0;points=[[0,0.5],[1,0.5]];portConstraint=eastwest;rounded=0;sketch=0;fontColor=#EEEEEE;" parent="10" vertex="1"><mxGeometry y="164" width="195" height="26" as="geometry"/></mxCell><mxCell id="16" value="1" style="endArrow=open;html=1;endSize=12;startArrow=diamondThin;startSize=14;startFill=1;edgeStyle=orthogonalEdgeStyle;align=left;verticalAlign=bottom;rounded=1;sketch=0;strokeColor=#0B4D6A;curved=0;exitX=1;exitY=0.5;exitDx=0;exitDy=0;" parent="1" source="7" target="3" edge="1"><mxGeometry x="-1" y="3" relative="1" as="geometry"><mxPoint x="308" y="302" as="sourcePoint"/><mxPoint x="493" y="400" as="targetPoint"/></mxGeometry></mxCell><mxCell id="17" value="TicketData" style="swimlane;fontStyle=3;align=center;verticalAlign=top;childLayout=stackLayout;horizontal=1;startSize=26;horizontalStack=0;resizeParent=1;resizeParentMax=0;resizeLast=0;collapsible=1;marginBottom=0;rounded=0;sketch=0;fontColor=#EEEEEE;strokeColor=#BAC8D3;fillColor=#09555B;" parent="1" vertex="1"><mxGeometry x="77" y="312" width="160" height="190" as="geometry"/></mxCell><mxCell id="22" value="- numberOfSpaces: int" style="text;strokeColor=none;fillColor=none;align=left;verticalAlign=top;spacingLeft=4;spacingRight=4;overflow=hidden;rotatable=0;points=[[0,0.5],[1,0.5]];portConstraint=eastwest;rounded=0;sketch=0;fontColor=#EEEEEE;" parent="17" vertex="1"><mxGeometry y="26" width="160" height="26" as="geometry"/></mxCell><mxCell id="23" value="- concert: Concert" style="text;strokeColor=none;fillColor=none;align=left;verticalAlign=top;spacingLeft=4;spacingRight=4;overflow=hidden;rotatable=0;points=[[0,0.5],[1,0.5]];portConstraint=eastwest;rounded=0;sketch=0;fontColor=#EEEEEE;" parent="17" vertex="1"><mxGeometry y="52" width="160" height="26" as="geometry"/></mxCell><mxCell id="21" value="- user: User" style="text;strokeColor=none;fillColor=none;align=left;verticalAlign=top;spacingLeft=4;spacingRight=4;overflow=hidden;rotatable=0;points=[[0,0.5],[1,0.5]];portConstraint=eastwest;rounded=0;sketch=0;fontColor=#EEEEEE;" parent="17" vertex="1"><mxGeometry y="78" width="160" height="26" as="geometry"/></mxCell><mxCell id="19" value="" style="line;strokeWidth=1;fillColor=none;align=left;verticalAlign=middle;spacingTop=-1;spacingLeft=3;spacingRight=3;rotatable=0;labelPosition=right;points=[];portConstraint=eastwest;rounded=0;sketch=0;fontColor=#EEEEEE;strokeColor=#BAC8D3;" parent="17" vertex="1"><mxGeometry y="104" width="160" height="8" as="geometry"/></mxCell><mxCell id="73" value="+ getSpaces(): int" style="text;strokeColor=none;fillColor=none;align=left;verticalAlign=top;spacingLeft=4;spacingRight=4;overflow=hidden;rotatable=0;points=[[0,0.5],[1,0.5]];portConstraint=eastwest;rounded=0;sketch=0;fontColor=#EEEEEE;" parent="17" vertex="1"><mxGeometry y="112" width="160" height="26" as="geometry"/></mxCell><mxCell id="74" value="+ getUser(): User" style="text;strokeColor=none;fillColor=none;align=left;verticalAlign=top;spacingLeft=4;spacingRight=4;overflow=hidden;rotatable=0;points=[[0,0.5],[1,0.5]];portConstraint=eastwest;rounded=0;sketch=0;fontColor=#EEEEEE;" parent="17" vertex="1"><mxGeometry y="138" width="160" height="26" as="geometry"/></mxCell><mxCell id="75" value="+ showTicket(): String" style="text;strokeColor=none;fillColor=none;align=left;verticalAlign=top;spacingLeft=4;spacingRight=4;overflow=hidden;rotatable=0;points=[[0,0.5],[1,0.5]];portConstraint=eastwest;rounded=0;sketch=0;fontColor=#EEEEEE;" parent="17" vertex="1"><mxGeometry y="164" width="160" height="26" as="geometry"/></mxCell><mxCell id="30" value="Booking" style="swimlane;fontStyle=1;align=center;verticalAlign=top;childLayout=stackLayout;horizontal=1;startSize=26;horizontalStack=0;resizeParent=1;resizeParentMax=0;resizeLast=0;collapsible=1;marginBottom=0;rounded=0;sketch=0;fontColor=#EEEEEE;strokeColor=#BAC8D3;fillColor=#09555B;" parent="1" vertex="1"><mxGeometry x="239" y="580" width="160" height="86" as="geometry"/></mxCell><mxCell id="31" value="- cost: float" style="text;strokeColor=none;fillColor=none;align=left;verticalAlign=top;spacingLeft=4;spacingRight=4;overflow=hidden;rotatable=0;points=[[0,0.5],[1,0.5]];portConstraint=eastwest;rounded=0;sketch=0;fontColor=#EEEEEE;" parent="30" vertex="1"><mxGeometry y="26" width="160" height="26" as="geometry"/></mxCell><mxCell id="35" value="" style="line;strokeWidth=1;fillColor=none;align=left;verticalAlign=middle;spacingTop=-1;spacingLeft=3;spacingRight=3;rotatable=0;labelPosition=right;points=[];portConstraint=eastwest;rounded=0;sketch=0;fontColor=#EEEEEE;strokeColor=#BAC8D3;" parent="30" vertex="1"><mxGeometry y="52" width="160" height="8" as="geometry"/></mxCell><mxCell id="76" value="+ getCost(): float" style="text;strokeColor=none;fillColor=none;align=left;verticalAlign=top;spacingLeft=4;spacingRight=4;overflow=hidden;rotatable=0;points=[[0,0.5],[1,0.5]];portConstraint=eastwest;rounded=0;sketch=0;fontColor=#EEEEEE;" parent="30" vertex="1"><mxGeometry y="60" width="160" height="26" as="geometry"/></mxCell><mxCell id="36" value="Ticket" style="swimlane;fontStyle=1;align=center;verticalAlign=top;childLayout=stackLayout;horizontal=1;startSize=26;horizontalStack=0;resizeParent=1;resizeParentMax=0;resizeLast=0;collapsible=1;marginBottom=0;rounded=0;sketch=0;fontColor=#EEEEEE;strokeColor=#BAC8D3;fillColor=#09555B;" parent="1" vertex="1"><mxGeometry x="60" y="580" width="160" height="34" as="geometry"/></mxCell><mxCell id="41" value="" style="line;strokeWidth=1;fillColor=none;align=left;verticalAlign=middle;spacingTop=-1;spacingLeft=3;spacingRight=3;rotatable=0;labelPosition=right;points=[];portConstraint=eastwest;rounded=0;sketch=0;fontColor=#EEEEEE;strokeColor=#BAC8D3;" parent="36" vertex="1"><mxGeometry y="26" width="160" height="8" as="geometry"/></mxCell><mxCell id="42" value="Extends" style="endArrow=block;endSize=16;endFill=0;html=1;rounded=1;sketch=0;strokeColor=#0B4D6A;curved=0;exitX=0.431;exitY=-0.088;exitDx=0;exitDy=0;exitPerimeter=0;entryX=0.344;entryY=1.154;entryDx=0;entryDy=0;entryPerimeter=0;" parent="1" source="36" target="75" edge="1"><mxGeometry width="160" relative="1" as="geometry"><mxPoint x="47" y="684" as="sourcePoint"/><mxPoint x="207" y="684" as="targetPoint"/></mxGeometry></mxCell><mxCell id="43" value="Extends" style="endArrow=block;endSize=16;endFill=0;html=1;rounded=1;sketch=0;strokeColor=#0B4D6A;curved=0;entryX=0.719;entryY=1.154;entryDx=0;entryDy=0;entryPerimeter=0;exitX=0.25;exitY=0;exitDx=0;exitDy=0;" parent="1" source="30" target="75" edge="1"><mxGeometry width="160" relative="1" as="geometry"><mxPoint x="306" y="582" as="sourcePoint"/><mxPoint x="217" y="694" as="targetPoint"/></mxGeometry></mxCell><mxCell id="45" value="1" style="endArrow=open;html=1;endSize=12;startArrow=diamondThin;startSize=14;startFill=1;edgeStyle=orthogonalEdgeStyle;align=left;verticalAlign=bottom;rounded=1;sketch=0;strokeColor=#0B4D6A;curved=0;exitX=0;exitY=0.5;exitDx=0;exitDy=0;entryX=0;entryY=0.5;entryDx=0;entryDy=0;" parent="1" source="36" target="14" edge="1"><mxGeometry x="-1" y="3" relative="1" as="geometry"><mxPoint x="47" y="568.98" as="sourcePoint"/><mxPoint x="67" y="190" as="targetPoint"/><Array as="points"><mxPoint x="28" y="597"/><mxPoint x="28" y="128"/></Array></mxGeometry></mxCell><mxCell id="55" value="Concert" style="swimlane;fontStyle=1;align=center;verticalAlign=top;childLayout=stackLayout;horizontal=1;startSize=26;horizontalStack=0;resizeParent=1;resizeParentMax=0;resizeLast=0;collapsible=1;marginBottom=0;rounded=0;sketch=0;fontColor=#EEEEEE;strokeColor=#BAC8D3;fillColor=#09555B;" parent="1" vertex="1"><mxGeometry x="527" y="344" width="211" height="320" as="geometry"/></mxCell><mxCell id="60" value="- dateTime:Datetime" style="text;strokeColor=none;fillColor=none;align=left;verticalAlign=top;spacingLeft=4;spacingRight=4;overflow=hidden;rotatable=0;points=[[0,0.5],[1,0.5]];portConstraint=eastwest;rounded=0;sketch=0;fontColor=#EEEEEE;" parent="55" vertex="1"><mxGeometry y="26" width="211" height="26" as="geometry"/></mxCell><mxCell id="61" value="- location:String" style="text;strokeColor=none;fillColor=none;align=left;verticalAlign=top;spacingLeft=4;spacingRight=4;overflow=hidden;rotatable=0;points=[[0,0.5],[1,0.5]];portConstraint=eastwest;rounded=0;sketch=0;fontColor=#EEEEEE;" parent="55" vertex="1"><mxGeometry y="52" width="211" height="26" as="geometry"/></mxCell><mxCell id="62" value="- price:float" style="text;strokeColor=none;fillColor=none;align=left;verticalAlign=top;spacingLeft=4;spacingRight=4;overflow=hidden;rotatable=0;points=[[0,0.5],[1,0.5]];portConstraint=eastwest;rounded=0;sketch=0;fontColor=#EEEEEE;" parent="55" vertex="1"><mxGeometry y="78" width="211" height="26" as="geometry"/></mxCell><mxCell id="52" value="- spaces:int" style="text;strokeColor=none;fillColor=none;align=left;verticalAlign=top;spacingLeft=4;spacingRight=4;overflow=hidden;rotatable=0;points=[[0,0.5],[1,0.5]];portConstraint=eastwest;rounded=0;sketch=0;fontColor=#EEEEEE;" parent="55" vertex="1"><mxGeometry y="104" width="211" height="26" as="geometry"/></mxCell><mxCell id="57" value="" style="line;strokeWidth=1;fillColor=none;align=left;verticalAlign=middle;spacingTop=-1;spacingLeft=3;spacingRight=3;rotatable=0;labelPosition=right;points=[];portConstraint=eastwest;rounded=0;sketch=0;fontColor=#EEEEEE;" parent="55" vertex="1"><mxGeometry y="130" width="211" height="8" as="geometry"/></mxCell><mxCell id="58" value="+ showAvailablity(spaces): float (cost)" style="text;strokeColor=none;fillColor=none;align=left;verticalAlign=top;spacingLeft=4;spacingRight=4;overflow=hidden;rotatable=0;points=[[0,0.5],[1,0.5]];portConstraint=eastwest;rounded=0;sketch=0;fontColor=#EEEEEE;" parent="55" vertex="1"><mxGeometry y="138" width="211" height="26" as="geometry"/></mxCell><mxCell id="63" value="+ reserve(spaces):float (cost)" style="text;strokeColor=none;fillColor=none;align=left;verticalAlign=top;spacingLeft=4;spacingRight=4;overflow=hidden;rotatable=0;points=[[0,0.5],[1,0.5]];portConstraint=eastwest;rounded=0;sketch=0;fontColor=#EEEEEE;" parent="55" vertex="1"><mxGeometry y="164" width="211" height="26" as="geometry"/></mxCell><mxCell id="80" value="+ release(spaces):void" style="text;strokeColor=none;fillColor=none;align=left;verticalAlign=top;spacingLeft=4;spacingRight=4;overflow=hidden;rotatable=0;points=[[0,0.5],[1,0.5]];portConstraint=eastwest;rounded=0;sketch=0;fontColor=#EEEEEE;" parent="55" vertex="1"><mxGeometry y="190" width="211" height="26" as="geometry"/></mxCell><mxCell id="67" value="+ getDate(): Datetime" style="text;strokeColor=none;fillColor=none;align=left;verticalAlign=top;spacingLeft=4;spacingRight=4;overflow=hidden;rotatable=0;points=[[0,0.5],[1,0.5]];portConstraint=eastwest;rounded=0;sketch=0;fontColor=#EEEEEE;" parent="55" vertex="1"><mxGeometry y="216" width="211" height="26" as="geometry"/></mxCell><mxCell id="68" value="+ getLocation(): String" style="text;strokeColor=none;fillColor=none;align=left;verticalAlign=top;spacingLeft=4;spacingRight=4;overflow=hidden;rotatable=0;points=[[0,0.5],[1,0.5]];portConstraint=eastwest;rounded=0;sketch=0;fontColor=#EEEEEE;" parent="55" vertex="1"><mxGeometry y="242" width="211" height="26" as="geometry"/></mxCell><mxCell id="69" value="+ getPrice(): float" style="text;strokeColor=none;fillColor=none;align=left;verticalAlign=top;spacingLeft=4;spacingRight=4;overflow=hidden;rotatable=0;points=[[0,0.5],[1,0.5]];portConstraint=eastwest;rounded=0;sketch=0;fontColor=#EEEEEE;" parent="55" vertex="1"><mxGeometry y="268" width="211" height="26" as="geometry"/></mxCell><mxCell id="70" value="+ getSpaces(): int" style="text;strokeColor=none;fillColor=none;align=left;verticalAlign=top;spacingLeft=4;spacingRight=4;overflow=hidden;rotatable=0;points=[[0,0.5],[1,0.5]];portConstraint=eastwest;rounded=0;sketch=0;fontColor=#EEEEEE;" parent="55" vertex="1"><mxGeometry y="294" width="211" height="26" as="geometry"/></mxCell><mxCell id="65" value="1" style="endArrow=open;html=1;endSize=12;startArrow=diamondThin;startSize=14;startFill=1;edgeStyle=orthogonalEdgeStyle;align=left;verticalAlign=bottom;rounded=1;sketch=0;strokeColor=#0B4D6A;curved=0;exitX=1;exitY=0.5;exitDx=0;exitDy=0;entryX=1;entryY=0.5;entryDx=0;entryDy=0;" parent="1" source="58" target="6" edge="1"><mxGeometry x="-1" y="3" relative="1" as="geometry"><mxPoint x="323" y="570" as="sourcePoint"/><mxPoint x="227" y="164" as="targetPoint"/><Array as="points"><mxPoint x="780" y="495"/><mxPoint x="780" y="128"/></Array></mxGeometry></mxCell><mxCell id="66" value="1" style="endArrow=open;html=1;endSize=12;startArrow=diamondThin;startSize=14;startFill=1;edgeStyle=orthogonalEdgeStyle;align=left;verticalAlign=bottom;rounded=1;sketch=0;strokeColor=#0B4D6A;curved=0;entryX=1;entryY=0.5;entryDx=0;entryDy=0;" parent="1" source="55" target="23" edge="1"><mxGeometry x="-1" y="3" relative="1" as="geometry"><mxPoint x="519" y="416" as="sourcePoint"/><mxPoint x="586" y="138" as="targetPoint"/></mxGeometry></mxCell><mxCell id="78" value="1" style="endArrow=open;html=1;endSize=12;startArrow=diamondThin;startSize=14;startFill=1;edgeStyle=orthogonalEdgeStyle;align=left;verticalAlign=bottom;rounded=1;sketch=0;strokeColor=#0B4D6A;curved=0;entryX=0;entryY=0.5;entryDx=0;entryDy=0;exitX=0.5;exitY=0;exitDx=0;exitDy=0;" parent="1" source="30" target="77" edge="1"><mxGeometry x="-1" y="3" relative="1" as="geometry"><mxPoint x="340" y="583" as="sourcePoint"/><mxPoint x="67" y="164" as="targetPoint"/></mxGeometry></mxCell></root></mxGraphModel></diagram></mxfile>